<?xml version="1.0" encoding="UTF-8"?>
<svg version="1.1" xmlns="http://www.w3.org/2000/svg" width="600" height="600">
<path d="M0 0 C198 0 396 0 600 0 C600 198 600 396 600 600 C402 600 204 600 0 600 C0 402 0 204 0 0 Z " fill="#FEFEFE" transform="translate(0,0)"/>
<path d="M0 0 C11.58166262 8.94810626 20.10839675 19.0304924 27.33740234 31.79443359 C27.92392578 32.81794922 28.51044922 33.84146484 29.11474609 34.89599609 C36.81116802 49.24170771 41.74886144 65.22713339 44.83740234 81.16943359 C44.99748779 81.99386963 45.15757324 82.81830566 45.32250977 83.66772461 C46.05539888 87.84455526 46.40798602 91.84609551 46.37451172 96.08984375 C46.36915405 96.97531891 46.36379639 97.86079407 46.35827637 98.77310181 C46.35138794 99.4401413 46.34449951 100.10718079 46.33740234 100.79443359 C47.91474655 100.78444084 47.91474655 100.78444084 49.5239563 100.77424622 C59.44073561 100.71339407 69.35747696 100.66844121 79.27440071 100.63899708 C84.37262894 100.62335059 89.47070627 100.60213076 94.56884766 100.56811523 C99.49013627 100.5354857 104.41127985 100.51757292 109.3326683 100.50980186 C111.20892494 100.50426483 113.08517377 100.49345231 114.96136856 100.47724342 C117.59225785 100.45542139 120.22255018 100.45246866 122.85351562 100.45385742 C123.62675674 100.44307159 124.39999786 100.43228577 125.19667053 100.4211731 C131.58571716 100.4575935 135.46501328 102.08847912 140.14990234 106.35693359 C147.26886297 114.28948972 143.65832002 131.72595633 143.13879013 142.04063797 C142.5689229 152.32632734 141.78485179 162.59901476 141.01304793 172.87110257 C140.678935 177.34713336 140.35631357 181.82399465 140.03230286 186.30076599 C139.41679151 194.78212091 138.79150577 203.26272398 138.16243678 211.74308294 C137.45823277 221.24224903 136.76453984 230.74217253 136.07198942 240.24219429 C135.22082954 251.91732841 134.36831522 263.59235787 133.50688171 275.26673889 C133.41624566 276.4978156 133.41624566 276.4978156 133.32377857 277.75376254 C133.02430829 281.81949576 132.72278706 285.88505619 132.4170866 289.95032597 C131.83606543 297.71836934 131.28482368 305.48643213 130.80716652 313.26159984 C130.57206144 317.07352195 130.32574096 320.88468993 130.07904112 324.69587696 C129.96496816 326.50930487 129.85646235 328.32309348 129.75412405 330.13722146 C128.70384439 348.7197193 125.37580735 364.55442129 111.33740234 377.79443359 C97.85359294 388.64060068 80.11279291 387.23009958 63.79956055 387.18261719 C61.44098671 387.18668857 59.08241479 387.19203361 56.72384644 387.19854736 C50.35425724 387.21215707 43.98481474 387.20694917 37.61522317 387.19741011 C31.61126466 387.19055776 25.60731921 387.19580369 19.60336103 387.20019169 C6.99150489 387.20872116 -5.62028556 387.19894895 -18.23213092 387.18279059 C-29.03328611 387.16938029 -39.83434458 387.17172609 -50.63549805 387.18554688 C-63.21037043 387.20162995 -75.78518548 387.20790718 -88.36006671 387.19871008 C-95.00515116 387.19398108 -101.65018183 387.1933828 -108.29526329 387.20331955 C-114.54083364 387.21200782 -120.78622187 387.20593314 -127.03177261 387.18863678 C-129.3186049 387.18468242 -131.6054526 387.1857879 -133.89227867 387.19242477 C-137.02329478 387.20067155 -140.15373399 387.19028087 -143.28471375 387.17538452 C-144.18084135 387.18207669 -145.07696896 387.18876885 -146.00025195 387.19566381 C-158.23510487 387.08342176 -169.65702375 383.22955272 -178.70947266 374.90771484 C-196.39773105 355.76901926 -194.28779067 324.20752874 -195.80929565 299.7019043 C-197.04574204 279.88416985 -198.54644742 260.08927833 -200.10009766 240.29443359 C-202.06962052 215.19880891 -203.82288435 190.09508997 -205.40649414 164.97216797 C-205.48429611 163.74711548 -205.56209808 162.52206299 -205.64225769 161.2598877 C-205.78592708 158.99170655 -205.9276968 156.72340384 -206.0670929 154.45495605 C-206.39896753 149.20568697 -206.83924259 143.99754004 -207.4524231 138.77401733 C-207.98718549 133.73721873 -207.93209891 128.66645287 -207.97509766 123.60693359 C-208.00410156 122.45773438 -208.03310547 121.30853516 -208.06298828 120.12451172 C-208.09939585 115.28790589 -208.06563418 111.69902668 -206.08056641 107.24365234 C-201.30982949 102.41125809 -197.01544356 100.34685802 -190.33398438 100.29675293 C-189.55498779 100.31113403 -188.77599121 100.32551514 -187.97338867 100.34033203 C-187.13355942 100.33974792 -186.29373016 100.33916382 -185.42845154 100.33856201 C-182.67403705 100.34133144 -179.92072751 100.37236849 -177.16650391 100.40380859 C-175.24837332 100.41127506 -173.33023508 100.41696608 -171.41209412 100.42095947 C-166.37971696 100.43618383 -161.34780643 100.475438 -156.31561279 100.51977539 C-151.17417715 100.56079721 -146.03266563 100.57898523 -140.89111328 100.59912109 C-130.81473714 100.64193541 -120.7387063 100.71014788 -110.66259766 100.79443359 C-110.67496964 100.14719833 -110.68734161 99.49996307 -110.7000885 98.83311462 C-110.75500108 93.86796594 -110.60643859 89.24442274 -109.59619141 84.36083984 C-109.24476074 82.66012329 -109.24476074 82.66012329 -108.88623047 80.92504883 C-108.62680664 79.7475708 -108.36738281 78.57009277 -108.10009766 77.35693359 C-107.69355957 75.50467163 -107.69355957 75.50467163 -107.27880859 73.61499023 C-101.95864047 50.26553238 -92.46704449 28.93754468 -76.66259766 10.79443359 C-76.08251953 10.10220703 -75.50244141 9.40998047 -74.90478516 8.69677734 C-55.74169551 -12.44039942 -23.33556472 -16.92085442 0 0 Z " fill="#EA5020" transform="translate(336.66259765625,40.20556640625)"/>
<path d="M0 0 C4.11555852 3.13110599 7.90128316 6.55396321 11.4140625 10.3515625 C11.86007812 10.80402344 12.30609375 11.25648437 12.765625 11.72265625 C26.59905796 26.55475951 33.7447501 48.33619371 37.7265625 67.7890625 C37.89808838 68.61720459 38.06961426 69.44534668 38.24633789 70.29858398 C38.40094482 71.09852783 38.55555176 71.89847168 38.71484375 72.72265625 C38.91847534 73.7734436 38.91847534 73.7734436 39.1262207 74.84545898 C39.52597426 78.32592571 39.4140625 81.84821388 39.4140625 85.3515625 C0.8040625 85.3515625 -37.8059375 85.3515625 -77.5859375 85.3515625 C-76.41491122 68.95719452 -76.41491122 68.95719452 -74.3984375 60.9140625 C-74.17921631 60.02082275 -73.95999512 59.12758301 -73.73413086 58.20727539 C-71.70193302 50.24622779 -68.98993433 42.82990847 -65.5859375 35.3515625 C-64.87630859 33.76794922 -64.87630859 33.76794922 -64.15234375 32.15234375 C-56.9249906 16.85542557 -45.64923686 1.90698996 -29.5859375 -4.6484375 C-19.29092395 -7.20236228 -9.00701659 -5.74163293 0 0 Z " fill="#FEFCFC" transform="translate(323.5859375,55.6484375)"/>
<path d="M0 0 C2.78407434 2.25487013 2.94395501 2.66373006 3.5625 6.375 C3 10 3 10 0.3125 12.9375 C-3.14248391 15.0887164 -4.10955107 15.41298612 -8 15 C-9.96484375 14.046875 -9.96484375 14.046875 -11.9375 12.75 C-24.93492569 5.11590471 -43.61391901 1.83677415 -58.43359375 4.65234375 C-67.78630605 7.17162926 -73.99557547 11.13149009 -79 19.5 C-81.94778889 25.99310255 -81.93079171 33.01906215 -81 40 C-76.40525956 51.60466495 -66.38709891 56.69030673 -55.6171875 61.515625 C-50.51172659 63.55780937 -45.48998067 65.17720351 -40.125 66.375 C-22.4737741 70.50762829 -4.0251404 81.40789214 6 96.625 C12.75195771 107.59693128 14.14985332 119.72919376 11.51074219 132.33740234 C9.11075961 140.98231566 5.15707166 148.43427314 -1 155 C-1.52078125 155.62132812 -2.0415625 156.24265625 -2.578125 156.8828125 C-9.85226739 165.03973916 -21.72095062 170.06016817 -32.51196289 171.28515625 C-35.0576643 171.40070017 -37.57709384 171.41721724 -40.125 171.375 C-41.49567627 171.35759766 -41.49567627 171.35759766 -42.89404297 171.33984375 C-66.34397445 170.78239039 -92.47727206 160.96634475 -110 145 C-111.54586876 141.90826248 -111.29359521 139.40570448 -111 136 C-109.4375 133.5625 -109.4375 133.5625 -107 132 C-100.34907763 131.11875279 -96.8421382 133.50564862 -91.5625 137.0625 C-72.88985049 149.01491575 -52.00687348 157.40167758 -29.5078125 153.375 C-19.80293297 150.6092328 -13.44787658 145.01232091 -8.5 136.3125 C-4.78504059 129.18184181 -4.11957523 121.95350021 -5 114 C-7.02853308 107.9059836 -10.11240502 103.18936713 -15 99 C-15.4434375 98.54367187 -15.886875 98.08734375 -16.34375 97.6171875 C-25.4685794 88.72513436 -38.83290198 85.30620845 -50.625 81.5 C-70.07701845 75.20389121 -86.95321366 66.67554042 -97.0546875 48.078125 C-101.07806566 39.23334326 -100.15945992 26.91646651 -96.875 18 C-91.19789212 5.17037767 -83.05420131 -3.47289935 -70.5 -9.75 C-47.54665111 -17.9476246 -20.34925026 -12.58336562 0 0 Z " fill="#FEFBFA" transform="translate(354,201)"/>
<path d="M0 0 C2.5625 0.1875 2.5625 0.1875 4.5625 2.1875 C4.6875 4.8125 4.6875 4.8125 4.5625 7.1875 C5.17738281 6.76597656 5.79226563 6.34445312 6.42578125 5.91015625 C7.23402344 5.36230469 8.04226563 4.81445312 8.875 4.25 C9.67550781 3.70472656 10.47601563 3.15945313 11.30078125 2.59765625 C16.87329029 -0.87674058 23.2186805 -0.45555232 29.5625 0.1875 C33.24133862 1.39540205 36.33371636 3.06623017 39.5625 5.1875 C40.15933594 5.57164062 40.75617188 5.95578125 41.37109375 6.3515625 C46.46407114 10.08556588 48.62670435 15.38011306 50.5625 21.1875 C51.53023136 29.83362448 49.36455982 36.68418958 44.8125 44 C38.92092932 49.72791594 32.05855891 53.16432582 23.8125 53.5625 C16.42823983 53.41749187 10.34495556 50.62182862 4.5625 46.1875 C4.57297363 47.23728027 4.58344727 48.28706055 4.59423828 49.36865234 C4.63038453 53.25615033 4.65338078 57.14363341 4.67236328 61.03125 C4.68243317 62.71519466 4.69608988 64.39912179 4.71337891 66.08300781 C4.73758426 68.50069501 4.74897296 70.91815143 4.7578125 73.3359375 C4.76813507 74.0911972 4.77845764 74.84645691 4.78909302 75.62460327 C4.78949318 77.4804398 4.68472716 79.3356928 4.5625 81.1875 C3.5725 82.1775 3.5725 82.1775 2.5625 83.1875 C-1.99305556 82.63194444 -1.99305556 82.63194444 -3.4375 81.1875 C-3.53783866 78.69796303 -3.57367943 76.23615047 -3.56689453 73.74609375 C-3.56864685 72.96726837 -3.57039917 72.18844299 -3.57220459 71.38601685 C-3.57662349 68.79898889 -3.57368499 66.21202871 -3.5703125 63.625 C-3.57098553 61.83520494 -3.57195554 60.04540998 -3.57321167 58.25561523 C-3.57468869 54.49950289 -3.57253394 50.74341428 -3.56787109 46.98730469 C-3.5621738 42.16149507 -3.56545278 37.33574105 -3.57144356 32.50993347 C-3.57504905 28.81261777 -3.57391064 25.11531536 -3.57131577 21.41799927 C-3.57064646 19.63811232 -3.57147503 17.85822418 -3.57379532 16.07833862 C-3.57632165 13.59516178 -3.57248154 11.11207626 -3.56689453 8.62890625 C-3.56891876 7.88601349 -3.57094299 7.14312073 -3.57302856 6.37771606 C-3.54745207 0.27288093 -3.54745207 0.27288093 0 0 Z " fill="#EA5729" transform="translate(313.4375,486.8125)"/>
<path d="M0 0 C6.5651649 4.40403411 10.19188843 9.25902234 12 17 C13.14646805 25.46714421 11.45227233 31.97579964 6.64453125 38.97265625 C2.52424543 44.17548365 -2.3833507 47.69598882 -9 49 C-17.45631011 49.86794972 -23.97485878 48.95523354 -31 44 C-36.67836621 39.06814314 -40.34180148 32.55202718 -41.41796875 25.109375 C-41.81712143 16.69480495 -39.77454428 10.26547648 -34.16796875 3.9296875 C-24.4371565 -5.24452997 -11.59672511 -7.15768564 0 0 Z " fill="#FEFCFB" transform="translate(287,491)"/>
<path d="M0 0 C6.65333475 3.80190557 10.77008879 8.7283771 13.16015625 16.01171875 C13.8208992 18.74908239 13.95744938 21.14492522 13.625 23.9375 C11.625 25.9375 11.625 25.9375 7.81787109 26.16455078 C6.1780258 26.16423346 4.53815983 26.15289681 2.8984375 26.1328125 C2.03562164 26.1299826 1.17280579 26.12715271 0.28384399 26.12423706 C-2.4775772 26.11302333 -5.2386765 26.08791684 -8 26.0625 C-9.86978699 26.05247173 -11.73957905 26.04334562 -13.609375 26.03515625 C-18.19804109 26.01308012 -22.78646593 25.97854234 -27.375 25.9375 C-26.80620907 27.69228052 -26.21929344 29.44119158 -25.625 31.1875 C-25.13773437 32.64929688 -25.13773437 32.64929688 -24.640625 34.140625 C-23.27679113 37.15452948 -21.90139859 38.82646675 -19.375 40.9375 C-12.26636259 43.0180768 -4.14151339 42.81662904 2.625 39.9375 C5.8125 39.6875 5.8125 39.6875 8.625 39.9375 C9.285 40.5975 9.945 41.2575 10.625 41.9375 C10.5625 43.875 10.5625 43.875 9.625 45.9375 C3.27902267 51.2599326 -6.64283681 51.41836125 -14.546875 51.24609375 C-20.44901059 50.60207619 -24.54192828 48.10026825 -28.625 43.875 C-33.71220281 37.37005215 -36.09368263 29.49156797 -35.69140625 21.27734375 C-34.64950071 13.57238794 -30.74217355 6.59790875 -24.7578125 1.58203125 C-17.36155139 -3.51439742 -8.07685313 -3.73814902 0 0 Z " fill="#EA5728" transform="translate(468.375,489.0625)"/>
<path d="M0 0 C6.9489764 3.9596896 11.16863596 9.29547855 13.625 16.9375 C13.9375 20.75 13.9375 20.75 13.625 23.9375 C11.625 25.9375 11.625 25.9375 7.81787109 26.16455078 C6.1780258 26.16423346 4.53815983 26.15289681 2.8984375 26.1328125 C2.03562164 26.1299826 1.17280579 26.12715271 0.28384399 26.12423706 C-2.4775772 26.11302333 -5.2386765 26.08791684 -8 26.0625 C-9.86978699 26.05247173 -11.73957905 26.04334562 -13.609375 26.03515625 C-18.19804109 26.01308012 -22.78646593 25.97854234 -27.375 25.9375 C-26.93647863 27.367091 -26.4878755 28.79359152 -26.03515625 30.21875 C-25.78644775 31.01345703 -25.53773926 31.80816406 -25.28149414 32.62695312 C-23.73029769 36.58077031 -21.24444529 40.00277735 -17.375 41.9375 C-10.30804799 42.36250551 -4.08642947 42.12898717 2.625 39.9375 C6 39.75 6 39.75 8.625 39.9375 C9.625 40.9375 9.625 40.9375 9.6875 43.5 C9.666875 44.304375 9.64625 45.10875 9.625 45.9375 C0.39170734 50.34896205 -9.43204954 53.04755621 -19.68359375 50.32421875 C-25.87682364 47.5837447 -30.58337576 42.71134681 -33.4765625 36.6171875 C-36.07552241 29.06320121 -37.18607478 20.05784795 -33.75 12.625 C-32.6328125 10.74609375 -32.6328125 10.74609375 -31.375 8.9375 C-30.93929688 8.30972656 -30.50359375 7.68195313 -30.0546875 7.03515625 C-22.55298033 -2.65967296 -11.23570886 -5.11021698 0 0 Z " fill="#EA5728" transform="translate(410.375,489.0625)"/>
<path d="M0 0 C2.4375 1.66796875 2.4375 1.66796875 4 3 C3.125 6.875 3.125 6.875 2 8 C-2.18608714 7.64373726 -5.82985196 6.76295542 -9.8125 5.4375 C-16.20668433 3.46482611 -22.55141163 2.83967339 -28.9375 5.1875 C-32.44176168 7.26145079 -33.61746941 8.17770954 -35 12 C-35.73036199 16.98123292 -35.93344372 20.65817466 -33 24.875 C-27.76327102 28.58434969 -22.94602983 30.83937957 -16.6875 32.3125 C-6.36919588 34.96373092 1.95186316 41.19176986 7.375 50.3125 C9.1389289 57.89739429 8.34916737 63.92258559 4.55078125 70.73828125 C0.86314237 76.11647498 -4.51461453 80.60616049 -11 82 C-24.74237322 83.37254282 -35.49804821 79.28586473 -47 72 C-48.83203125 70.484375 -48.83203125 70.484375 -50 69 C-49.6875 66.3125 -49.6875 66.3125 -49 64 C-46.04832921 63.10932039 -44.6008923 62.6984922 -41.7890625 64.109375 C-41.07492188 64.65078125 -40.36078125 65.1921875 -39.625 65.75 C-30.76504049 72.09326005 -21.87866547 74.07607396 -11 73 C-6.96345889 71.0171377 -4.3499944 68.83420139 -2 65 C-0.44659279 60.33977836 0.22010281 55.61673114 -1.91796875 51.03125 C-6.22137078 45.27655403 -12.46491864 43.38933967 -19 41 C-38.49719608 33.34554524 -38.49719608 33.34554524 -43.15625 26.15234375 C-45.34398273 20.5715996 -44.9516224 13.6891912 -42.8125 8.125 C-32.88967449 -8.98331985 -16.28200301 -6.94724888 0 0 Z " fill="#EB592A" transform="translate(167,458)"/>
<path d="M0 0 C3.53571429 0.53571429 3.53571429 0.53571429 5 2 C5.08868299 4.95705321 5.11520296 7.89065056 5.09765625 10.84765625 C5.0962413 11.7340831 5.09482635 12.62050995 5.09336853 13.53379822 C5.08775215 16.37673254 5.07519691 19.21958931 5.0625 22.0625 C5.05748711 23.98502491 5.05292384 25.90755104 5.04882812 27.83007812 C5.03777741 32.55341549 5.02050183 37.27669458 5 42 C5.59167969 41.59007812 6.18335938 41.18015625 6.79296875 40.7578125 C7.58316406 40.21898437 8.37335938 39.68015625 9.1875 39.125 C9.96480469 38.59132813 10.74210938 38.05765625 11.54296875 37.5078125 C18.13222627 33.46416639 24.40638934 33.10123932 32 34 C37.23691262 35.99266172 40.8995403 39.34931045 44 44 C44.35803711 44.5367334 44.71607422 45.0734668 45.08496094 45.62646484 C46.44843454 49.16320186 46.28496253 52.67686804 46.265625 56.4140625 C46.26849518 57.63033829 46.26849518 57.63033829 46.27142334 58.8711853 C46.27278166 60.58079337 46.2691099 62.29041187 46.26074219 64 C46.2500097 66.62262968 46.26066346 69.24457869 46.2734375 71.8671875 C46.27211639 73.52864735 46.26955499 75.19010677 46.265625 76.8515625 C46.26967346 77.63802155 46.27372192 78.42448059 46.27789307 79.23477173 C46.2299393 84.7700607 46.2299393 84.7700607 44 87 C39.44444444 86.44444444 39.44444444 86.44444444 38 85 C37.88929008 82.3940294 37.83837998 79.810093 37.82421875 77.203125 C37.80101149 75.58852876 37.77689379 73.9739454 37.75195312 72.359375 C37.71688777 69.8072053 37.68752903 67.25550582 37.67407227 64.703125 C37.65856084 62.24420664 37.61832189 59.78667535 37.57421875 57.328125 C37.57612717 56.56961243 37.57803558 55.81109985 37.58000183 55.02960205 C37.46606121 50.07466371 36.55264258 47.47251403 33 44 C28.97332374 41.98666187 24.3662586 42.39717462 20 43 C16.32314587 44.56995023 13.15291869 46.5496033 10 49 C8.96105591 49.80727539 8.96105591 49.80727539 7.90112305 50.63085938 C5.32918399 53.83595718 5.39753335 56.66674843 5.390625 60.609375 C5.37408875 61.33618469 5.35755249 62.06299438 5.34051514 62.81182861 C5.29207639 65.12463869 5.27067511 67.43679157 5.25 69.75 C5.22183659 71.32164757 5.19190863 72.89326459 5.16015625 74.46484375 C5.08631953 78.30984169 5.03672052 82.15447572 5 86 C2.625 86.625 2.625 86.625 0 87 C-2.51622535 84.48377465 -2.24332854 82.93911062 -2.27105713 79.50608826 C-2.26700867 78.7403096 -2.26296021 77.97453094 -2.25878906 77.18554688 C-2.2622937 76.37892105 -2.26579834 75.57229523 -2.26940918 74.7412262 C-2.27823313 72.06698068 -2.27237505 69.39299834 -2.265625 66.71875 C-2.26697146 64.86551869 -2.26891183 63.01228772 -2.27142334 61.15905762 C-2.2743755 57.27185712 -2.27007401 53.38474843 -2.26074219 49.49755859 C-2.2493476 44.50703372 -2.25590658 39.51672395 -2.26788712 34.52620697 C-2.27510324 30.6984494 -2.27281893 26.87074309 -2.26763153 23.04298401 C-2.26629435 21.20251948 -2.26794515 19.36205034 -2.27259064 17.52159119 C-2.27765182 14.95241918 -2.26995152 12.38359884 -2.25878906 9.81445312 C-2.26283752 9.04867447 -2.26688599 8.28289581 -2.27105713 7.49391174 C-2.22852852 2.22852852 -2.22852852 2.22852852 0 0 Z " fill="#EA5526" transform="translate(189,453)"/>
<path d="M0 0 C5.89431074 3.1079093 10.2848356 6.35450679 12.4375 12.8125 C13.35959693 18.80147302 13.10056497 23.52354981 9.875 28.75 C6.060714 33.68821715 2.85124581 36.32280405 -3.39453125 37.21875 C-9.27139828 37.51444142 -14.05537524 37.1136945 -18.87109375 33.5546875 C-23.23959478 29.05503055 -25.77594091 23.44753039 -26.1875 17.1875 C-25.80950683 11.40522616 -23.0718477 7.02533834 -18.77734375 3.23828125 C-12.60916283 -1.33219676 -7.36089406 -2.45363135 0 0 Z " fill="#FEFAF9" transform="translate(343.5625,495.1875)"/>
<path d="M0 0 C6.5651649 4.40403411 10.19188843 9.25902234 12 17 C13.14646805 25.46714421 11.45227233 31.97579964 6.64453125 38.97265625 C2.52424543 44.17548365 -2.3833507 47.69598882 -9 49 C-17.45631011 49.86794972 -23.97485878 48.95523354 -31 44 C-36.67836621 39.06814314 -40.34180148 32.55202718 -41.41796875 25.109375 C-41.81712143 16.69480495 -39.77454428 10.26547648 -34.16796875 3.9296875 C-24.4371565 -5.24452997 -11.59672511 -7.15768564 0 0 Z M-29.8125 11.125 C-34.0442462 16.68672357 -33.83890215 22.16893967 -33 29 C-31.5144754 32.28460285 -29.6068931 34.53827032 -27 37 C-26.154375 37.825 -25.30875 38.65 -24.4375 39.5 C-18.99317078 41.8757073 -13.83244576 41.94002789 -8 41 C-4.72709978 39.49498131 -2.46098613 37.6061057 0 35 C0.825 34.154375 1.65 33.30875 2.5 32.4375 C4.85897619 27.03151291 4.72515894 21.80127155 4 16 C1.7144807 11.07734305 -1.71694706 8.18950751 -6 5 C-15.49495083 1.83501639 -23.32321826 3.64582782 -29.8125 11.125 Z " fill="#EA582A" transform="translate(287,491)"/>
<path d="M0 0 C3.51183484 2.47424727 6.42236069 5.30572236 8.75 8.9375 C8.75 9.9275 8.75 10.9175 8.75 11.9375 C-2.14 11.9375 -13.03 11.9375 -24.25 11.9375 C-22.2431316 6.920329 -20.10559091 2.7132456 -15.390625 -0.21875 C-10.44430624 -2.16839389 -4.95911635 -1.62124957 0 0 Z " fill="#FDF2EF" transform="translate(465.25,496.0625)"/>
<path d="M0 0 C5.27726735 1.79227948 7.83988933 4.57584506 11 9 C11.495 10.98 11.495 10.98 12 13 C1.11 13 -9.78 13 -21 13 C-18.74641148 6.23923445 -18.74641148 6.23923445 -15.5 3.6875 C-14.8915625 3.19636719 -14.283125 2.70523437 -13.65625 2.19921875 C-9.43499154 -0.85721131 -5.03887183 -0.41925898 0 0 Z " fill="#FDF2EF" transform="translate(404,495)"/>
<path d="M0 0 C0.66 0.33 1.32 0.66 2 1 C-0.31 3.31 -2.62 5.62 -5 8 C-5.33 7.34 -5.66 6.68 -6 6 C-4 4 -2 2 0 0 Z " fill="#EC6A41" transform="translate(136,143)"/>
</svg>
